# xmcd
#
# Track frame offsets:
#	150
#	26167
#	56188
#	68598
#	84460
#	103335
#	109181
#	123261
#	150865
#	155284
#	172091
#	191048
#	213472
#	229067
#	247816
#	251367
#
# Disc length: 3669 seconds
#
# Revision: 1
# Processed by: cddbd v1.5.1PL0 Copyright (c) Steve Scherf et al.
# Submitted via: EasyCDDAExtractor 5.0.6
#
DISCID=d20e5310
DTITLE=Kevin "B.F." Burt - Live At The Terrapin Coffee Brewery Set 2
DYEAR=1900
DGENRE=Blues
TTITLE0=Aint No Sunshine
TTITLE1=Stoop Down Baby
TTITLE2=Grandmas Hands
TTITLE3=I Dont Want You On Mind All The Time
TTITLE4=Give Me One Reason
TTITLE5=Dialog For The Next Song
TTITLE6=Vehicle
TTITLE7=World Keeps Goin' Round And Round
TTITLE8=Diggin' On Bill
TTITLE9=Life Is A Bitch
TTITLE10=Livin' In The Past
TTITLE11=Stormy Monday Blues
TTITLE12=(Love Not) Fade Away
TTITLE13=Rain Keep's Commin' Down
TTITLE14=Just Noodlin'
TTITLE15=Stand By Me
EXTD=
EXTT0=
EXTT1=
EXTT2=
EXTT3=
EXTT4=
EXTT5=
EXTT6=
EXTT7=
EXTT8=
EXTT9=
EXTT10=
EXTT11=
EXTT12=
EXTT13=
EXTT14=
EXTT15=
PLAYORDER=
